<svg width="30" height="31" viewBox="0 0 30 31" fill="none" xmlns="http://www.w3.org/2000/svg">
<g filter="url(#filter0_d_501_133)">
<path d="M18 22.75H12C6.57 22.75 4.25 20.43 4.25 15V9C4.25 3.57 6.57 1.25 12 1.25H18C23.43 1.25 25.75 3.57 25.75 9V15C25.75 20.43 23.43 22.75 18 22.75ZM12 2.75C7.39 2.75 5.75 4.39 5.75 9V15C5.75 19.61 7.39 21.25 12 21.25H18C22.61 21.25 24.25 19.61 24.25 15V9C24.25 4.39 22.61 2.75 18 2.75H12Z" fill="#9197B3"/>
<path d="M15.0006 13.0797C14.8706 13.0797 14.7406 13.0497 14.6206 12.9797L9.32061 9.9197C8.96061 9.7097 8.84059 9.2497 9.05059 8.8997C9.26059 8.5397 9.72061 8.4197 10.0706 8.6297L14.9906 11.4797L19.8806 8.6497C20.2406 8.4397 20.7006 8.5697 20.9006 8.9197C21.1006 9.2697 20.9806 9.7397 20.6306 9.9397L15.3706 12.9797C15.2606 13.0397 15.1306 13.0797 15.0006 13.0797Z" fill="#9197B3"/>
<path d="M15 18.5201C14.59 18.5201 14.25 18.1801 14.25 17.7701V12.3301C14.25 11.9201 14.59 11.5801 15 11.5801C15.41 11.5801 15.75 11.9201 15.75 12.3301V17.7701C15.75 18.1801 15.41 18.5201 15 18.5201Z" fill="#9197B3"/>
<path d="M15.0002 18.7498C14.4202 18.7498 13.8503 18.6198 13.3903 18.3698L10.1903 16.5898C9.23025 16.0598 8.49023 14.7898 8.49023 13.6898V10.2998C8.49023 9.20981 9.24025 7.9398 10.1903 7.3998L13.3903 5.6198C14.3103 5.1098 15.6902 5.1098 16.6102 5.6198L19.8102 7.3998C20.7702 7.9298 21.5103 9.19981 21.5103 10.2998V13.6898C21.5103 14.7798 20.7602 16.0498 19.8102 16.5898L16.6102 18.3698C16.1502 18.6298 15.5802 18.7498 15.0002 18.7498ZM15.0002 6.7498C14.6702 6.7498 14.3502 6.8098 14.1202 6.9398L10.9203 8.7198C10.4303 8.9898 9.99023 9.7498 9.99023 10.2998V13.6898C9.99023 14.2498 10.4303 14.9998 10.9203 15.2698L14.1202 17.0498C14.5802 17.3098 15.4202 17.3098 15.8802 17.0498L19.0802 15.2698C19.5702 14.9998 20.0103 14.2398 20.0103 13.6898V10.2998C20.0103 9.73981 19.5702 8.9898 19.0802 8.7198L15.8802 6.9398C15.6502 6.8098 15.3302 6.7498 15.0002 6.7498Z" fill="#9197B3"/>
</g>
<defs>
<filter id="filter0_d_501_133" x="-1" y="0" width="32" height="32" filterUnits="userSpaceOnUse" color-interpolation-filters="sRGB">
<feFlood flood-opacity="0" result="BackgroundImageFix"/>
<feColorMatrix in="SourceAlpha" type="matrix" values="0 0 0 0 0 0 0 0 0 0 0 0 0 0 0 0 0 0 127 0" result="hardAlpha"/>
<feOffset dy="4"/>
<feGaussianBlur stdDeviation="2"/>
<feComposite in2="hardAlpha" operator="out"/>
<feColorMatrix type="matrix" values="0 0 0 0 0 0 0 0 0 0 0 0 0 0 0 0 0 0 0.25 0"/>
<feBlend mode="normal" in2="BackgroundImageFix" result="effect1_dropShadow_501_133"/>
<feBlend mode="normal" in="SourceGraphic" in2="effect1_dropShadow_501_133" result="shape"/>
</filter>
</defs>
</svg>
